<?xml version="1.0" encoding="utf-8"?>
<!-- Generator: Adobe Illustrator 17.0.0, SVG Export Plug-In . SVG Version: 6.00 Build 0)  -->
<!DOCTYPE svg PUBLIC "-//W3C//DTD SVG 1.1//EN" "http://www.w3.org/Graphics/SVG/1.1/DTD/svg11.dtd">
<svg version="1.1" id="Calque_1" xmlns="http://www.w3.org/2000/svg" xmlns:xlink="http://www.w3.org/1999/xlink" x="0px" y="0px" width="582.667px" height="307.333px" viewBox="0 0 582.667 307.333" enable-background="new 0 0 582.667 307.333" xml:space="preserve">
	<g data-line="1">
		<polygon fill="#FFFFFF" style="fill-opacity: 0;" stroke="#58595B" stroke-width="2" stroke-miterlimit="10" points="31.654,40.48 31.654,27.026 43.305,20.298 54.957,27.026 54.957,40.48 43.305,47.207 "/>
		<polygon fill="#FFFFFF" style="fill-opacity: 0;" stroke="#58595B" stroke-width="2" stroke-miterlimit="10" points="54.959,40.48 54.959,27.026 66.611,20.298 78.262,27.026 78.262,40.48 66.611,47.207 "/>
		<polygon fill="#FFFFFF" style="fill-opacity: 0;" stroke="#58595B" stroke-width="2" stroke-miterlimit="10" points="78.262,40.48 78.262,27.026 89.914,20.298 101.566,27.026 101.566,40.48 89.914,47.207 "/>
		<polygon fill="#FFFFFF" style="fill-opacity: 0;" stroke="#58595B" stroke-width="2" stroke-miterlimit="10" points="101.568,40.48 101.568,27.026 113.219,20.298 124.871,27.026 124.871,40.48 113.219,47.207 "/>
		<polygon fill="#FFFFFF" style="fill-opacity: 0;" stroke="#58595B" stroke-width="2" stroke-miterlimit="10" points="124.871,40.48 124.871,27.026 136.523,20.298 148.174,27.026 148.174,40.48 136.523,47.207 "/>
		<polygon fill="#FFFFFF" style="fill-opacity: 0;" stroke="#58595B" stroke-width="2" stroke-miterlimit="10" points="148.176,40.48 148.176,27.026 159.828,20.298 171.48,27.026 171.48,40.48 159.828,47.207 "/>
		<polygon fill="#FFFFFF" style="fill-opacity: 0;" stroke="#58595B" stroke-width="2" stroke-miterlimit="10" points="171.48,40.48 171.48,27.026 183.132,20.298 194.783,27.026 194.783,40.48 183.132,47.207 "/>
		<polygon fill="#FFFFFF" style="fill-opacity: 0;" stroke="#58595B" stroke-width="2" stroke-miterlimit="10" points="194.785,40.48 194.785,27.026 206.437,20.298 218.089,27.026 218.089,40.48 206.437,47.207 "/>
		<polygon fill="#FFFFFF" style="fill-opacity: 0;" stroke="#58595B" stroke-width="2" stroke-miterlimit="10" points="218.089,40.48 218.089,27.026 229.74,20.298 241.392,27.026 241.392,40.48 229.74,47.207 "/>
		<polygon fill="#FFFFFF" style="fill-opacity: 0;" stroke="#58595B" stroke-width="2" stroke-miterlimit="10" points="241.392,40.48 241.392,27.026 253.044,20.298 264.695,27.026 264.695,40.48 253.044,47.207 "/>
		<polygon fill="#FFFFFF" style="fill-opacity: 0;" stroke="#58595B" stroke-width="2" stroke-miterlimit="10" points="264.697,40.48 264.697,27.026 276.349,20.298 288.001,27.026 288.001,40.48 276.349,47.207 "/>
	</g>
	<g data-line="2">
		<polygon fill="#FFFFFF" style="fill-opacity: 0;" stroke="#58595B" stroke-width="2" stroke-miterlimit="10" points="20.003,60.637 20.003,47.183 31.655,40.456 43.306,47.183 43.306,60.637 31.655,67.364 "/>
		<polygon fill="#FFFFFF" style="fill-opacity: 0;" stroke="#58595B" stroke-width="2" stroke-miterlimit="10" points="43.308,60.637 43.308,47.183 54.96,40.456 66.612,47.183 66.612,60.637 54.96,67.364 "/>
		<polygon fill="#FFFFFF" style="fill-opacity: 0;" stroke="#58595B" stroke-width="2" stroke-miterlimit="10" points="66.612,60.637 66.612,47.183 78.263,40.456 89.915,47.183 89.915,60.637 78.263,67.364 "/>
		<polygon fill="#FFFFFF" style="fill-opacity: 0;" stroke="#58595B" stroke-width="2" stroke-miterlimit="10" points="89.917,60.637 89.917,47.183 101.569,40.456 113.22,47.183 113.22,60.637 101.569,67.364 "/>
		<polygon fill="#FFFFFF" style="fill-opacity: 0;" stroke="#58595B" stroke-width="2" stroke-miterlimit="10" points="113.22,60.637 113.22,47.183 124.872,40.456 136.524,47.183 136.524,60.637 124.872,67.364 "/>
		<polygon fill="#FFFFFF" style="fill-opacity: 0;" stroke="#58595B" stroke-width="2" stroke-miterlimit="10" points="136.526,60.637 136.526,47.183 148.177,40.456 159.829,47.183 159.829,60.637 148.177,67.364 "/>
		<polygon fill="#FFFFFF" style="fill-opacity: 0;" stroke="#58595B" stroke-width="2" stroke-miterlimit="10" points="159.829,60.637 159.829,47.183 171.481,40.456 183.133,47.183 183.133,60.637 171.481,67.364 "/>
		<polygon fill="#FFFFFF" style="fill-opacity: 0;" stroke="#58595B" stroke-width="2" stroke-miterlimit="10" points="183.135,60.637 183.135,47.183 194.786,40.456 206.438,47.183 206.438,60.637 194.786,67.364 "/>
		<polygon fill="#FFFFFF" style="fill-opacity: 0;" stroke="#58595B" stroke-width="2" stroke-miterlimit="10" points="206.438,60.637 206.438,47.183 218.09,40.456 229.741,47.183 229.741,60.637 218.09,67.364 "/>
		<polygon fill="#FFFFFF" style="fill-opacity: 0;" stroke="#58595B" stroke-width="2" stroke-miterlimit="10" points="229.741,60.637 229.741,47.183 241.393,40.456 253.045,47.183 253.045,60.637 241.393,67.364 "/>
		<polygon fill="#FFFFFF" style="fill-opacity: 0;" stroke="#58595B" stroke-width="2" stroke-miterlimit="10" points="253.047,60.637 253.047,47.183 264.698,40.456 276.35,47.183 276.35,60.637 264.698,67.364 "/>
		<polygon fill="#FFFFFF" style="fill-opacity: 0;" stroke="#58595B" stroke-width="2" stroke-miterlimit="10" points="276.349,60.637 276.349,47.183 288.001,40.456 299.652,47.183 299.652,60.637 288.001,67.364 "/>
	</g>
	<g data-line="3">
		<polygon fill="#FFFFFF" style="fill-opacity: 0;" stroke="#58595B" stroke-width="2" stroke-miterlimit="10" points="31.654,80.667 31.654,67.213 43.305,60.486 54.957,67.213 54.957,80.667 43.305,87.394 "/>
		<polygon fill="#FFFFFF" style="fill-opacity: 0;" stroke="#58595B" stroke-width="2" stroke-miterlimit="10" points="54.959,80.667 54.959,67.213 66.611,60.486 78.262,67.213 78.262,80.667 66.611,87.394 "/>
		<polygon fill="#FFFFFF" style="fill-opacity: 0;" stroke="#58595B" stroke-width="2" stroke-miterlimit="10" points="78.262,80.667 78.262,67.213 89.914,60.486 101.566,67.213 101.566,80.667 89.914,87.394 "/>
		<polygon fill="#FFFFFF" style="fill-opacity: 0;" stroke="#58595B" stroke-width="2" stroke-miterlimit="10" points="101.568,80.667 101.568,67.213 113.219,60.486 124.871,67.213 124.871,80.667 113.219,87.394 "/>
		<polygon fill="#FFFFFF" style="fill-opacity: 0;" stroke="#58595B" stroke-width="2" stroke-miterlimit="10" points="124.871,80.667 124.871,67.213 136.523,60.486 148.174,67.213 148.174,80.667 136.523,87.394 "/>
		<polygon fill="#FFFFFF" style="fill-opacity: 0;" stroke="#58595B" stroke-width="2" stroke-miterlimit="10" points="148.176,80.667 148.176,67.213 159.828,60.486 171.48,67.213 171.48,80.667 159.828,87.394 "/>
		<polygon fill="#FFFFFF" style="fill-opacity: 0;" stroke="#58595B" stroke-width="2" stroke-miterlimit="10" points="171.48,80.667 171.48,67.213 183.132,60.486 194.783,67.213 194.783,80.667 183.132,87.394 "/>
		<polygon fill="#FFFFFF" style="fill-opacity: 0;" stroke="#58595B" stroke-width="2" stroke-miterlimit="10" points="194.785,80.667 194.785,67.213 206.437,60.486 218.089,67.213 218.089,80.667 206.437,87.394 "/>
		<polygon fill="#FFFFFF" style="fill-opacity: 0;" stroke="#58595B" stroke-width="2" stroke-miterlimit="10" points="218.089,80.667 218.089,67.213 229.74,60.486 241.392,67.213 241.392,80.667 229.74,87.394 "/>
		<polygon fill="#FFFFFF" style="fill-opacity: 0;" stroke="#58595B" stroke-width="2" stroke-miterlimit="10" points="241.392,80.667 241.392,67.213 253.044,60.486 264.695,67.213 264.695,80.667 253.044,87.394 "/>
		<polygon fill="#FFFFFF" style="fill-opacity: 0;" stroke="#58595B" stroke-width="2" stroke-miterlimit="10" points="264.697,80.667 264.697,67.213 276.349,60.486 288.001,67.213 288.001,80.667 276.349,87.394 "/>
	</g>
	<g data-line="4">
		<polygon fill="#FFFFFF" style="fill-opacity: 0;" stroke="#58595B" stroke-width="2" stroke-miterlimit="10" points="20.003,100.824 20.003,87.37 31.655,80.643 43.306,87.37 43.306,100.824 31.655,107.551 "/>
		<polygon fill="#FFFFFF" style="fill-opacity: 0;" stroke="#58595B" stroke-width="2" stroke-miterlimit="10" points="43.308,100.824 43.308,87.37 54.96,80.643 66.612,87.37 66.612,100.824 54.96,107.551 "/>
		<polygon fill="#FFFFFF" style="fill-opacity: 0;" stroke="#58595B" stroke-width="2" stroke-miterlimit="10" points="66.612,100.824 66.612,87.37 78.263,80.643 89.915,87.37 89.915,100.824 78.263,107.551 "/>
		<polygon fill="#FFFFFF" style="fill-opacity: 0;" stroke="#58595B" stroke-width="2" stroke-miterlimit="10" points="89.917,100.824 89.917,87.37 101.569,80.643 113.22,87.37 113.22,100.824 101.569,107.551 "/>
		<polygon fill="#FFFFFF" style="fill-opacity: 0;" stroke="#58595B" stroke-width="2" stroke-miterlimit="10" points="113.22,100.824 113.22,87.37 124.872,80.643 136.524,87.37 136.524,100.824 124.872,107.551 "/>
		<polygon fill="#FFFFFF" style="fill-opacity: 0;" stroke="#58595B" stroke-width="2" stroke-miterlimit="10" points="136.526,100.824 136.526,87.37 148.177,80.643 159.829,87.37 159.829,100.824 148.177,107.551 "/>
		<polygon fill="#FFFFFF" style="fill-opacity: 0;" stroke="#58595B" stroke-width="2" stroke-miterlimit="10" points="159.829,100.824 159.829,87.37 171.481,80.643 183.133,87.37 183.133,100.824 171.481,107.551 "/>
		<polygon fill="#FFFFFF" style="fill-opacity: 0;" stroke="#58595B" stroke-width="2" stroke-miterlimit="10" points="183.135,100.824 183.135,87.37 194.786,80.643 206.438,87.37 206.438,100.824 194.786,107.551 "/>
		<polygon fill="#FFFFFF" style="fill-opacity: 0;" stroke="#58595B" stroke-width="2" stroke-miterlimit="10" points="206.438,100.824 206.438,87.37 218.09,80.643 229.741,87.37 229.741,100.824 218.09,107.551 "/>
		<polygon fill="#FFFFFF" style="fill-opacity: 0;" stroke="#58595B" stroke-width="2" stroke-miterlimit="10" points="229.741,100.824 229.741,87.37 241.393,80.643 253.045,87.37 253.045,100.824 241.393,107.551 "/>
		<polygon fill="#FFFFFF" style="fill-opacity: 0;" stroke="#58595B" stroke-width="2" stroke-miterlimit="10" points="253.047,100.824 253.047,87.37 264.698,80.643 276.35,87.37 276.35,100.824 264.698,107.551 "/>
		<polygon fill="#FFFFFF" style="fill-opacity: 0;" stroke="#58595B" stroke-width="2" stroke-miterlimit="10" points="276.349,100.824 276.349,87.37 288.001,80.643 299.652,87.37 299.652,100.824 288.001,107.551 "/>
	</g>
	<g data-line="5">
		<polygon fill="#FFFFFF" style="fill-opacity: 0;" stroke="#58595B" stroke-width="2" stroke-miterlimit="10" points="31.655,121.015 31.655,107.56 43.307,100.833 54.958,107.56 54.958,121.015 43.307,127.742 "/>
		<polygon fill="#FFFFFF" style="fill-opacity: 0;" stroke="#58595B" stroke-width="2" stroke-miterlimit="10" points="54.96,121.015 54.96,107.56 66.612,100.833 78.264,107.56 78.264,121.015 66.612,127.742 "/>
		<polygon fill="#FFFFFF" style="fill-opacity: 0;" stroke="#58595B" stroke-width="2" stroke-miterlimit="10" points="78.264,121.015 78.264,107.56 89.916,100.833 101.567,107.56 101.567,121.015 89.916,127.742 "/>
		<polygon fill="#FFFFFF" style="fill-opacity: 0;" stroke="#58595B" stroke-width="2" stroke-miterlimit="10" points="101.569,121.015 101.569,107.56 113.221,100.833 124.873,107.56 124.873,121.015 113.221,127.742 "/>
		<polygon fill="#FFFFFF" style="fill-opacity: 0;" stroke="#58595B" stroke-width="2" stroke-miterlimit="10" points="124.873,121.015 124.873,107.56 136.524,100.833 148.176,107.56 148.176,121.015 136.524,127.742 "/>
		<polygon fill="#FFFFFF" style="fill-opacity: 0;" stroke="#58595B" stroke-width="2" stroke-miterlimit="10" points="148.178,121.015 148.178,107.56 159.83,100.833 171.481,107.56 171.481,121.015 159.83,127.742 "/>
		<polygon fill="#FFFFFF" style="fill-opacity: 0;" stroke="#58595B" stroke-width="2" stroke-miterlimit="10" points="171.481,121.015 171.481,107.56 183.133,100.833 194.785,107.56 194.785,121.015 183.133,127.742 "/>
		<polygon fill="#FFFFFF" style="fill-opacity: 0;" stroke="#58595B" stroke-width="2" stroke-miterlimit="10" points="194.787,121.015 194.787,107.56 206.438,100.833 218.09,107.56 218.09,121.015 206.438,127.742 "/>
		<polygon fill="#FFFFFF" style="fill-opacity: 0;" stroke="#58595B" stroke-width="2" stroke-miterlimit="10" points="218.09,121.015 218.09,107.56 229.742,100.833 241.393,107.56 241.393,121.015 229.742,127.742 "/>
		<polygon fill="#FFFFFF" style="fill-opacity: 0;" stroke="#58595B" stroke-width="2" stroke-miterlimit="10" points="241.393,121.015 241.393,107.56 253.045,100.833 264.697,107.56 264.697,121.015 253.045,127.742 "/>
		<polygon fill="#FFFFFF" style="fill-opacity: 0;" stroke="#58595B" stroke-width="2" stroke-miterlimit="10" points="264.699,121.015 264.699,107.56 276.35,100.833 288.002,107.56 288.002,121.015 276.35,127.742 "/>
	</g>
	<g data-line="6">
		<polygon fill="#FFFFFF" style="fill-opacity: 0;" stroke="#58595B" stroke-width="2" stroke-miterlimit="10" points="20.004,141.172 20.004,127.717 31.656,120.99 43.308,127.717 43.308,141.172 31.656,147.899 "/>
		<polygon fill="#FFFFFF" style="fill-opacity: 0;" stroke="#58595B" stroke-width="2" stroke-miterlimit="10" points="43.31,141.172 43.31,127.717 54.961,120.99 66.613,127.717 66.613,141.172 54.961,147.899 "/>
		<polygon fill="#FFFFFF" style="fill-opacity: 0;" stroke="#58595B" stroke-width="2" stroke-miterlimit="10" points="66.613,141.172 66.613,127.717 78.265,120.99 89.917,127.717 89.917,141.172 78.265,147.899 "/>
		<polygon fill="#FFFFFF" style="fill-opacity: 0;" stroke="#58595B" stroke-width="2" stroke-miterlimit="10" points="89.919,141.172 89.919,127.717 101.57,120.99 113.222,127.717 113.222,141.172 101.57,147.899 "/>
		<polygon fill="#FFFFFF" style="fill-opacity: 0;" stroke="#58595B" stroke-width="2" stroke-miterlimit="10" points="113.222,141.172 113.222,127.717 124.874,120.99 136.525,127.717 136.525,141.172 124.874,147.899 "/>
		<polygon fill="#FFFFFF" style="fill-opacity: 0;" stroke="#58595B" stroke-width="2" stroke-miterlimit="10" points="136.527,141.172 136.527,127.717 148.179,120.99 159.831,127.717 159.831,141.172 148.179,147.899 "/>
		<polygon fill="#FFFFFF" style="fill-opacity: 0;" stroke="#58595B" stroke-width="2" stroke-miterlimit="10" points="159.831,141.172 159.831,127.717 171.482,120.99 183.134,127.717 183.134,141.172 171.482,147.899 "/>
		<polygon fill="#FFFFFF" style="fill-opacity: 0;" stroke="#58595B" stroke-width="2" stroke-miterlimit="10" points="183.136,141.172 183.136,127.717 194.788,120.99 206.439,127.717 206.439,141.172 194.788,147.899 "/>
		<polygon fill="#FFFFFF" style="fill-opacity: 0;" stroke="#58595B" stroke-width="2" stroke-miterlimit="10" points="206.439,141.172 206.439,127.717 218.091,120.99 229.743,127.717 229.743,141.172 218.091,147.899 "/>
		<polygon fill="#FFFFFF" style="fill-opacity: 0;" stroke="#58595B" stroke-width="2" stroke-miterlimit="10" points="229.743,141.172 229.743,127.717 241.394,120.99 253.046,127.717 253.046,141.172 241.394,147.899 "/>
		<polygon fill="#FFFFFF" style="fill-opacity: 0;" stroke="#58595B" stroke-width="2" stroke-miterlimit="10" points="253.048,141.172 253.048,127.717 264.7,120.99 276.351,127.717 276.351,141.172 264.7,147.899 "/>
		<polygon fill="#FFFFFF" style="fill-opacity: 0;" stroke="#58595B" stroke-width="2" stroke-miterlimit="10" points="276.35,141.172 276.35,127.717 288.002,120.99 299.654,127.717 299.654,141.172 288.002,147.899 "/>
	</g>
	<g data-line="7">
		<polygon fill="#FFFFFF" style="fill-opacity: 0;" stroke="#58595B" stroke-width="2" stroke-miterlimit="10" points="31.651,161.294 31.651,147.839 43.302,141.112 54.954,147.839 54.954,161.294 43.302,168.021 "/>
		<polygon fill="#FFFFFF" style="fill-opacity: 0;" stroke="#58595B" stroke-width="2" stroke-miterlimit="10" points="54.956,161.294 54.956,147.839 66.608,141.112 78.259,147.839 78.259,161.294 66.608,168.021 "/>
		<polygon fill="#FFFFFF" style="fill-opacity: 0;" stroke="#58595B" stroke-width="2" stroke-miterlimit="10" points="78.259,161.294 78.259,147.839 89.911,141.112 101.563,147.839 101.563,161.294 89.911,168.021 "/>
		<polygon fill="#FFFFFF" style="fill-opacity: 0;" stroke="#58595B" stroke-width="2" stroke-miterlimit="10" points="101.565,161.294 101.565,147.839 113.216,141.112 124.868,147.839 124.868,161.294 113.216,168.021 "/>
		<polygon fill="#FFFFFF" style="fill-opacity: 0;" stroke="#58595B" stroke-width="2" stroke-miterlimit="10" points="124.868,161.294 124.868,147.839 136.52,141.112 148.172,147.839 148.172,161.294 136.52,168.021 "/>
		<polygon fill="#FFFFFF" style="fill-opacity: 0;" stroke="#58595B" stroke-width="2" stroke-miterlimit="10" points="148.174,161.294 148.174,147.839 159.825,141.112 171.477,147.839 171.477,161.294 159.825,168.021 "/>
		<polygon fill="#FFFFFF" style="fill-opacity: 0;" stroke="#58595B" stroke-width="2" stroke-miterlimit="10" points="171.477,161.294 171.477,147.839 183.129,141.112 194.78,147.839 194.78,161.294 183.129,168.021 "/>
		<polygon fill="#FFFFFF" style="fill-opacity: 0;" stroke="#58595B" stroke-width="2" stroke-miterlimit="10" points="194.782,161.294 194.782,147.839 206.434,141.112 218.086,147.839 218.086,161.294 206.434,168.021 "/>
		<polygon fill="#FFFFFF" style="fill-opacity: 0;" stroke="#58595B" stroke-width="2" stroke-miterlimit="10" points="218.086,161.294 218.086,147.839 229.737,141.112 241.389,147.839 241.389,161.294 229.737,168.021 "/>
		<polygon fill="#FFFFFF" style="fill-opacity: 0;" stroke="#58595B" stroke-width="2" stroke-miterlimit="10" points="241.389,161.294 241.389,147.839 253.041,141.112 264.692,147.839 264.692,161.294 253.041,168.021 "/>
		<polygon fill="#FFFFFF" style="fill-opacity: 0;" stroke="#58595B" stroke-width="2" stroke-miterlimit="10" points="264.694,161.294 264.694,147.839 276.346,141.112 287.998,147.839 287.998,161.294 276.346,168.021 "/>
	</g>
	<g data-line="8">
		<polygon fill="#FFFFFF" style="fill-opacity: 0;" stroke="#58595B" stroke-width="2" stroke-miterlimit="10" points="20,181.451 20,167.997 31.652,161.269 43.303,167.997 43.303,181.451 31.652,188.178 "/>
		<polygon fill="#FFFFFF" style="fill-opacity: 0;" stroke="#58595B" stroke-width="2" stroke-miterlimit="10" points="43.305,181.451 43.305,167.997 54.957,161.269 66.609,167.997 66.609,181.451 54.957,188.178 "/>
		<polygon fill="#FFFFFF" style="fill-opacity: 0;" stroke="#58595B" stroke-width="2" stroke-miterlimit="10" points="66.609,181.451 66.609,167.997 78.26,161.269 89.912,167.997 89.912,181.451 78.26,188.178 "/>
		<polygon fill="#FFFFFF" style="fill-opacity: 0;" stroke="#58595B" stroke-width="2" stroke-miterlimit="10" points="89.914,181.451 89.914,167.997 101.566,161.269 113.217,167.997 113.217,181.451 101.566,188.178 "/>
		<polygon fill="#FFFFFF" style="fill-opacity: 0;" stroke="#58595B" stroke-width="2" stroke-miterlimit="10" points="113.217,181.451 113.217,167.997 124.869,161.269 136.521,167.997 136.521,181.451 124.869,188.178 "/>
		<polygon fill="#FFFFFF" style="fill-opacity: 0;" stroke="#58595B" stroke-width="2" stroke-miterlimit="10" points="136.523,181.451 136.523,167.997 148.175,161.269 159.826,167.997 159.826,181.451 148.175,188.178 "/>
		<polygon fill="#FFFFFF" style="fill-opacity: 0;" stroke="#58595B" stroke-width="2" stroke-miterlimit="10" points="159.826,181.451 159.826,167.997 171.478,161.269 183.13,167.997 183.13,181.451 171.478,188.178 "/>
		<polygon fill="#FFFFFF" style="fill-opacity: 0;" stroke="#58595B" stroke-width="2" stroke-miterlimit="10" points="183.132,181.451 183.132,167.997 194.783,161.269 206.435,167.997 206.435,181.451 194.783,188.178 "/>
		<polygon fill="#FFFFFF" style="fill-opacity: 0;" stroke="#58595B" stroke-width="2" stroke-miterlimit="10" points="206.435,181.451 206.435,167.997 218.087,161.269 229.738,167.997 229.738,181.451 218.087,188.178 "/>
		<polygon fill="#FFFFFF" style="fill-opacity: 0;" stroke="#58595B" stroke-width="2" stroke-miterlimit="10" points="229.738,181.451 229.738,167.997 241.39,161.269 253.042,167.997 253.042,181.451 241.39,188.178 "/>
		<polygon fill="#FFFFFF" style="fill-opacity: 0;" stroke="#58595B" stroke-width="2" stroke-miterlimit="10" points="253.044,181.451 253.044,167.997 264.695,161.269 276.347,167.997 276.347,181.451 264.695,188.178 "/>
		<polygon fill="#FFFFFF" style="fill-opacity: 0;" stroke="#58595B" stroke-width="2" stroke-miterlimit="10" points="276.346,181.451 276.346,167.997 287.998,161.269 299.649,167.997 299.649,181.451 287.998,188.178 "/>
	</g>
	<g data-line="9">
		<polygon fill="#FFFFFF" style="fill-opacity: 0;" stroke="#58595B" stroke-width="2" stroke-miterlimit="10" points="31.651,201.615 31.651,188.161 43.302,181.434 54.954,188.161 54.954,201.615 43.302,208.342 "/>
		<polygon fill="#FFFFFF" style="fill-opacity: 0;" stroke="#58595B" stroke-width="2" stroke-miterlimit="10" points="54.956,201.615 54.956,188.161 66.608,181.434 78.259,188.161 78.259,201.615 66.608,208.342 "/>
		<polygon fill="#FFFFFF" style="fill-opacity: 0;" stroke="#58595B" stroke-width="2" stroke-miterlimit="10" points="78.259,201.615 78.259,188.161 89.911,181.434 101.563,188.161 101.563,201.615 89.911,208.342 "/>
		<polygon fill="#FFFFFF" style="fill-opacity: 0;" stroke="#58595B" stroke-width="2" stroke-miterlimit="10" points="101.565,201.615 101.565,188.161 113.216,181.434 124.868,188.161 124.868,201.615 113.216,208.342 "/>
		<polygon fill="#FFFFFF" style="fill-opacity: 0;" stroke="#58595B" stroke-width="2" stroke-miterlimit="10" points="124.868,201.615 124.868,188.161 136.52,181.434 148.172,188.161 148.172,201.615 136.52,208.342 "/>
		<polygon fill="#FFFFFF" style="fill-opacity: 0;" stroke="#58595B" stroke-width="2" stroke-miterlimit="10" points="148.174,201.615 148.174,188.161 159.825,181.434 171.477,188.161 171.477,201.615 159.825,208.342 "/>
		<polygon fill="#FFFFFF" style="fill-opacity: 0;" stroke="#58595B" stroke-width="2" stroke-miterlimit="10" points="171.477,201.615 171.477,188.161 183.129,181.434 194.78,188.161 194.78,201.615 183.129,208.342 "/>
		<polygon fill="#FFFFFF" style="fill-opacity: 0;" stroke="#58595B" stroke-width="2" stroke-miterlimit="10" points="194.782,201.615 194.782,188.161 206.434,181.434 218.086,188.161 218.086,201.615 206.434,208.342 "/>
		<polygon fill="#FFFFFF" style="fill-opacity: 0;" stroke="#58595B" stroke-width="2" stroke-miterlimit="10" points="218.086,201.615 218.086,188.161 229.737,181.434 241.389,188.161 241.389,201.615 229.737,208.342 "/>
		<polygon fill="#FFFFFF" style="fill-opacity: 0;" stroke="#58595B" stroke-width="2" stroke-miterlimit="10" points="241.389,201.615 241.389,188.161 253.041,181.434 264.692,188.161 264.692,201.615 253.041,208.342 "/>
		<polygon fill="#FFFFFF" style="fill-opacity: 0;" stroke="#58595B" stroke-width="2" stroke-miterlimit="10" points="264.694,201.615 264.694,188.161 276.346,181.434 287.998,188.161 287.998,201.615 276.346,208.342 "/>
	</g>
	<g data-line="10">
		<polygon fill="#FFFFFF" style="fill-opacity: 0;" stroke="#58595B" stroke-width="2" stroke-miterlimit="10" points="20,221.772 20,208.318 31.652,201.591 43.303,208.318 43.303,221.772 31.652,228.499 "/>
		<polygon fill="#FFFFFF" style="fill-opacity: 0;" stroke="#58595B" stroke-width="2" stroke-miterlimit="10" points="43.305,221.772 43.305,208.318 54.957,201.591 66.609,208.318 66.609,221.772 54.957,228.499 "/>
		<polygon fill="#FFFFFF" style="fill-opacity: 0;" stroke="#58595B" stroke-width="2" stroke-miterlimit="10" points="66.609,221.772 66.609,208.318 78.26,201.591 89.912,208.318 89.912,221.772 78.26,228.499 "/>
		<polygon fill="#FFFFFF" style="fill-opacity: 0;" stroke="#58595B" stroke-width="2" stroke-miterlimit="10" points="89.914,221.772 89.914,208.318 101.566,201.591 113.217,208.318 113.217,221.772 101.566,228.499 "/>
		<polygon fill="#FFFFFF" style="fill-opacity: 0;" stroke="#58595B" stroke-width="2" stroke-miterlimit="10" points="113.217,221.772 113.217,208.318 124.869,201.591 136.521,208.318 136.521,221.772 124.869,228.499 "/>
		<polygon fill="#FFFFFF" style="fill-opacity: 0;" stroke="#58595B" stroke-width="2" stroke-miterlimit="10" points="136.523,221.772 136.523,208.318 148.174,201.591 159.826,208.318 159.826,221.772 148.174,228.499 "/>
		<polygon fill="#FFFFFF" style="fill-opacity: 0;" stroke="#58595B" stroke-width="2" stroke-miterlimit="10" points="159.826,221.772 159.826,208.318 171.478,201.591 183.13,208.318 183.13,221.772 171.478,228.499 "/>
		<polygon fill="#FFFFFF" style="fill-opacity: 0;" stroke="#58595B" stroke-width="2" stroke-miterlimit="10" points="183.132,221.772 183.132,208.318 194.783,201.591 206.435,208.318 206.435,221.772 194.783,228.499 "/>
		<polygon fill="#FFFFFF" style="fill-opacity: 0;" stroke="#58595B" stroke-width="2" stroke-miterlimit="10" points="206.435,221.772 206.435,208.318 218.087,201.591 229.738,208.318 229.738,221.772 218.087,228.499 "/>
		<polygon fill="#FFFFFF" style="fill-opacity: 0;" stroke="#58595B" stroke-width="2" stroke-miterlimit="10" points="229.738,221.772 229.738,208.318 241.39,201.591 253.042,208.318 253.042,221.772 241.39,228.499 "/>
		<polygon fill="#FFFFFF" style="fill-opacity: 0;" stroke="#58595B" stroke-width="2" stroke-miterlimit="10" points="253.044,221.772 253.044,208.318 264.695,201.591 276.347,208.318 276.347,221.772 264.695,228.499 "/>
		<polygon fill="#FFFFFF" style="fill-opacity: 0;" stroke="#58595B" stroke-width="2" stroke-miterlimit="10" points="276.346,221.772 276.346,208.318 287.998,201.591 299.649,208.318 299.649,221.772 287.998,228.499 "/>
	</g>
	<g data-line="11">
		<polygon fill="#FFFFFF" style="fill-opacity: 0;" stroke="#58595B" stroke-width="2" stroke-miterlimit="10" points="31.681,241.874 31.681,228.42 43.333,221.693 54.985,228.42 54.985,241.874 43.333,248.601 "/>
		<polygon fill="#FFFFFF" style="fill-opacity: 0;" stroke="#58595B" stroke-width="2" stroke-miterlimit="10" points="54.987,241.874 54.987,228.42 66.638,221.693 78.29,228.42 78.29,241.874 66.638,248.601 "/>
		<polygon fill="#FFFFFF" style="fill-opacity: 0;" stroke="#58595B" stroke-width="2" stroke-miterlimit="10" points="78.29,241.874 78.29,228.42 89.942,221.693 101.593,228.42 101.593,241.874 89.942,248.601 "/>
		<polygon fill="#FFFFFF" style="fill-opacity: 0;" stroke="#58595B" stroke-width="2" stroke-miterlimit="10" points="101.595,241.874 101.595,228.42 113.247,221.693 124.899,228.42 124.899,241.874 113.247,248.601 "/>
		<polygon fill="#FFFFFF" style="fill-opacity: 0;" stroke="#58595B" stroke-width="2" stroke-miterlimit="10" points="124.899,241.874 124.899,228.42 136.551,221.693 148.202,228.42 148.202,241.874 136.551,248.601 "/>
		<polygon fill="#FFFFFF" style="fill-opacity: 0;" stroke="#58595B" stroke-width="2" stroke-miterlimit="10" points="148.204,241.874 148.204,228.42 159.856,221.693 171.508,228.42 171.508,241.874 159.856,248.601 "/>
		<polygon fill="#FFFFFF" style="fill-opacity: 0;" stroke="#58595B" stroke-width="2" stroke-miterlimit="10" points="171.508,241.874 171.508,228.42 183.159,221.693 194.811,228.42 194.811,241.874 183.159,248.601 "/>
		<polygon fill="#FFFFFF" style="fill-opacity: 0;" stroke="#58595B" stroke-width="2" stroke-miterlimit="10" points="194.813,241.874 194.813,228.42 206.465,221.693 218.116,228.42 218.116,241.874 206.465,248.601 "/>
		<polygon fill="#FFFFFF" style="fill-opacity: 0;" stroke="#58595B" stroke-width="2" stroke-miterlimit="10" points="218.116,241.874 218.116,228.42 229.768,221.693 241.42,228.42 241.42,241.874 229.768,248.601 "/>
		<polygon fill="#FFFFFF" style="fill-opacity: 0;" stroke="#58595B" stroke-width="2" stroke-miterlimit="10" points="241.42,241.874 241.42,228.42 253.071,221.693 264.723,228.42 264.723,241.874 253.071,248.601 "/>
		<polygon fill="#FFFFFF" style="fill-opacity: 0;" stroke="#58595B" stroke-width="2" stroke-miterlimit="10" points="264.725,241.874 264.725,228.42 276.377,221.693 288.028,228.42 288.028,241.874 276.377,248.601 "/>
	</g>
	<g data-line="12">
		<polygon fill="#FFFFFF" style="fill-opacity: 0;" stroke="#58595B" stroke-width="2" stroke-miterlimit="10" points="20.031,262.031 20.031,248.577 31.682,241.85 43.334,248.577 43.334,262.031 31.682,268.758 "/>
		<polygon fill="#FFFFFF" style="fill-opacity: 0;" stroke="#58595B" stroke-width="2" stroke-miterlimit="10" points="43.336,262.031 43.336,248.577 54.988,241.85 66.639,248.577 66.639,262.031 54.988,268.758 "/>
		<polygon fill="#FFFFFF" style="fill-opacity: 0;" stroke="#58595B" stroke-width="2" stroke-miterlimit="10" points="66.639,262.031 66.639,248.577 78.291,241.85 89.943,248.577 89.943,262.031 78.291,268.758 "/>
		<polygon fill="#FFFFFF" style="fill-opacity: 0;" stroke="#58595B" stroke-width="2" stroke-miterlimit="10" points="89.945,262.031 89.945,248.577 101.596,241.85 113.248,248.577 113.248,262.031 101.596,268.758 "/>
		<polygon fill="#FFFFFF" style="fill-opacity: 0;" stroke="#58595B" stroke-width="2" stroke-miterlimit="10" points="113.248,262.031 113.248,248.577 124.9,241.85 136.552,248.577 136.552,262.031 124.9,268.758 "/>
		<polygon fill="#FFFFFF" style="fill-opacity: 0;" stroke="#58595B" stroke-width="2" stroke-miterlimit="10" points="136.554,262.031 136.554,248.577 148.205,241.85 159.857,248.577 159.857,262.031 148.205,268.758 "/>
		<polygon fill="#FFFFFF" style="fill-opacity: 0;" stroke="#58595B" stroke-width="2" stroke-miterlimit="10" points="159.857,262.031 159.857,248.577 171.509,241.85 183.16,248.577 183.16,262.031 171.509,268.758 "/>
		<polygon fill="#FFFFFF" style="fill-opacity: 0;" stroke="#58595B" stroke-width="2" stroke-miterlimit="10" points="183.162,262.031 183.162,248.577 194.814,241.85 206.466,248.577 206.466,262.031 194.814,268.758 "/>
		<polygon fill="#FFFFFF" style="fill-opacity: 0;" stroke="#58595B" stroke-width="2" stroke-miterlimit="10" points="206.466,262.031 206.466,248.577 218.117,241.85 229.769,248.577 229.769,262.031 218.117,268.758 "/>
		<polygon fill="#FFFFFF" style="fill-opacity: 0;" stroke="#58595B" stroke-width="2" stroke-miterlimit="10" points="229.769,262.031 229.769,248.577 241.421,241.85 253.072,248.577 253.072,262.031 241.421,268.758 "/>
		<polygon fill="#FFFFFF" style="fill-opacity: 0;" stroke="#58595B" stroke-width="2" stroke-miterlimit="10" points="253.074,262.031 253.074,248.577 264.726,241.85 276.378,248.577 276.378,262.031 264.726,268.758 "/>
		<polygon fill="#FFFFFF" style="fill-opacity: 0;" stroke="#58595B" stroke-width="2" stroke-miterlimit="10" points="276.377,262.031 276.377,248.577 288.028,241.85 299.68,248.577 299.68,262.031 288.028,268.758 "/>
	</g>
	<g data-line="13">
		<polygon fill="#FFFFFF" style="fill-opacity: 0;" stroke="#58595B" stroke-width="2" stroke-miterlimit="10" points="31.652,282.245 31.652,268.791 43.303,262.064 54.955,268.791 54.955,282.245 43.303,288.972 "/>
		<polygon fill="#FFFFFF" style="fill-opacity: 0;" stroke="#58595B" stroke-width="2" stroke-miterlimit="10" points="54.957,282.245 54.957,268.791 66.609,262.064 78.26,268.791 78.26,282.245 66.609,288.972 "/>
		<polygon fill="#FFFFFF" style="fill-opacity: 0;" stroke="#58595B" stroke-width="2" stroke-miterlimit="10" points="78.26,282.245 78.26,268.791 89.912,262.064 101.564,268.791 101.564,282.245 89.912,288.972 "/>
		<polygon fill="#FFFFFF" style="fill-opacity: 0;" stroke="#58595B" stroke-width="2" stroke-miterlimit="10" points="101.566,282.245 101.566,268.791 113.217,262.064 124.869,268.791 124.869,282.245 113.217,288.972 "/>
		<polygon fill="#FFFFFF" style="fill-opacity: 0;" stroke="#58595B" stroke-width="2" stroke-miterlimit="10" points="124.869,282.245 124.869,268.791 136.521,262.064 148.173,268.791 148.173,282.245 136.521,288.972 "/>
		<polygon fill="#FFFFFF" style="fill-opacity: 0;" stroke="#58595B" stroke-width="2" stroke-miterlimit="10" points="148.174,282.245 148.174,268.791 159.826,262.064 171.478,268.791 171.478,282.245 159.826,288.972 "/>
		<polygon fill="#FFFFFF" style="fill-opacity: 0;" stroke="#58595B" stroke-width="2" stroke-miterlimit="10" points="171.478,282.245 171.478,268.791 183.13,262.064 194.781,268.791 194.781,282.245 183.13,288.972 "/>
		<polygon fill="#FFFFFF" style="fill-opacity: 0;" stroke="#58595B" stroke-width="2" stroke-miterlimit="10" points="194.783,282.245 194.783,268.791 206.435,262.064 218.087,268.791 218.087,282.245 206.435,288.972 "/>
		<polygon fill="#FFFFFF" style="fill-opacity: 0;" stroke="#58595B" stroke-width="2" stroke-miterlimit="10" points="218.087,282.245 218.087,268.791 229.738,262.064 241.39,268.791 241.39,282.245 229.738,288.972 "/>
		<polygon fill="#FFFFFF" style="fill-opacity: 0;" stroke="#58595B" stroke-width="2" stroke-miterlimit="10" points="241.39,282.245 241.39,268.791 253.042,262.064 264.693,268.791 264.693,282.245 253.042,288.972 "/>
		<polygon fill="#FFFFFF" style="fill-opacity: 0;" stroke="#58595B" stroke-width="2" stroke-miterlimit="10" points="264.695,282.245 264.695,268.791 276.347,262.064 287.999,268.791 287.999,282.245 276.347,288.972 "/>
	</g>
	<line fill="none" stroke="#58595B" stroke-width="2" stroke-miterlimit="10" x1="358.634" y1="34.097" x2="557.059" y2="34.097"/>
	<circle fill="none" stroke="#58595B" stroke-width="2" stroke-miterlimit="10" cx="355.8" cy="34.097" r="2.835"/>
	<circle fill="none" stroke="#58595B" stroke-width="2" stroke-miterlimit="10" cx="559.894" cy="34.097" r="2.835"/>
	<line fill="none" stroke="#58595B" stroke-width="2" stroke-miterlimit="10" x1="358.634" y1="74.445" x2="557.059" y2="74.445"/>
	<circle fill="none" stroke="#58595B" stroke-width="2" stroke-miterlimit="10" cx="355.8" cy="74.445" r="2.835"/>
	<circle fill="none" stroke="#58595B" stroke-width="2" stroke-miterlimit="10" cx="559.894" cy="74.445" r="2.835"/>
	<line fill="none" stroke="#58595B" stroke-width="2" stroke-miterlimit="10" x1="358.634" y1="114.724" x2="557.059" y2="114.724"/>
	<circle fill="none" stroke="#58595B" stroke-width="2" stroke-miterlimit="10" cx="355.8" cy="114.778" r="2.835"/>
	<circle fill="none" stroke="#58595B" stroke-width="2" stroke-miterlimit="10" cx="559.894" cy="114.778" r="2.835"/>
	<line fill="none" stroke="#58595B" stroke-width="2" stroke-miterlimit="10" x1="358.634" y1="154.965" x2="557.059" y2="154.965"/>
	<circle fill="none" stroke="#58595B" stroke-width="2" stroke-miterlimit="10" cx="355.8" cy="154.965" r="2.835"/>
	<circle fill="none" stroke="#58595B" stroke-width="2" stroke-miterlimit="10" cx="559.894" cy="154.965" r="2.835"/>
	<line fill="none" stroke="#58595B" stroke-width="2" stroke-miterlimit="10" x1="358.634" y1="195.304" x2="557.059" y2="195.304"/>
	<circle fill="none" stroke="#58595B" stroke-width="2" stroke-miterlimit="10" cx="355.8" cy="195.312" r="2.835"/>
	<circle fill="none" stroke="#58595B" stroke-width="2" stroke-miterlimit="10" cx="559.894" cy="195.312" r="2.835"/>
	<line fill="none" stroke="#58595B" stroke-width="2" stroke-miterlimit="10" x1="358.634" y1="235.224" x2="557.059" y2="235.224"/>
	<circle fill="none" stroke="#58595B" stroke-width="2" stroke-miterlimit="10" cx="355.8" cy="235.224" r="2.835"/>
	<circle fill="none" stroke="#58595B" stroke-width="2" stroke-miterlimit="10" cx="559.894" cy="235.224" r="2.835"/>
	<line fill="none" stroke="#58595B" stroke-width="2" stroke-miterlimit="10" x1="358.634" y1="275.563" x2="557.059" y2="275.563"/>
	<circle fill="none" stroke="#58595B" stroke-width="2" stroke-miterlimit="10" cx="355.8" cy="275.571" r="2.835"/>
	<circle fill="none" stroke="#58595B" stroke-width="2" stroke-miterlimit="10" cx="559.894" cy="275.571" r="2.835"/>
</svg>
